<svg width="18" height="18" viewBox="0 0 18 18" fill="none" xmlns="http://www.w3.org/2000/svg">
<path d="M12.85 10.1161L12.8008 10.1451C12.5404 10.2986 12.3111 10.5065 12.1319 10.7602L8.59945 15.7642L8.54992 15.8343L8.47308 15.796L7.97733 15.5485L7.97731 15.5485C7.88024 15.5 7.80269 15.4197 7.75758 15.321C7.71247 15.2223 7.70251 15.1111 7.72936 15.006M12.85 10.1161L7.82625 15.0308M12.85 10.1161V10.059V3.75V3.65H12.75H4.38H4.31304L4.28754 3.71192L2.15754 8.88392L2.15 8.90221V8.922V10.5V10.6H2.25H7.05C7.26321 10.6 7.4736 10.6488 7.66513 10.7425C7.85665 10.8362 8.02423 10.9724 8.15509 11.1408C8.28596 11.3091 8.37664 11.5051 8.42023 11.7138C8.46381 11.9225 8.45915 12.1384 8.40659 12.3451M12.85 10.1161L8.40659 12.3451M7.72936 15.006L7.82625 15.0308M7.72936 15.006L7.72934 15.0061L7.82625 15.0308M7.72936 15.006L8.40659 12.3451L8.5035 12.3698M7.82625 15.0308L8.5035 12.3698M8.5035 12.3698L8.40659 12.3451M8.5035 12.3698L8.40659 12.3451M7.14691 12.0247L7.17865 11.9H7.05H2.25C1.8787 11.9 1.5226 11.7525 1.26005 11.4899C0.9975 11.2274 0.850001 10.8713 0.850001 10.5L0.850001 8.922L0.850001 8.9219C0.849812 8.73896 0.885477 8.55777 0.954979 8.38855C0.954986 8.38853 0.954994 8.38851 0.955001 8.3885L3.27696 2.7531L3.277 2.753C3.32593 2.63389 3.40914 2.532 3.51607 2.46025C3.623 2.3885 3.74883 2.35013 3.8776 2.35L16.5 2.35C16.6724 2.35 16.8377 2.41848 16.9596 2.54038C17.0815 2.66228 17.15 2.82761 17.15 3V10.5C17.15 10.6724 17.0815 10.8377 16.9596 10.9596C16.8377 11.0815 16.6724 11.15 16.5 11.15H13.8885C13.8885 11.15 13.8885 11.15 13.8885 11.15C13.7524 11.15 13.6183 11.1826 13.4975 11.2452C13.3767 11.3077 13.2726 11.3984 13.1941 11.5096L13.1941 11.5096L9.1043 17.3041L9.1043 17.3041C9.06638 17.3578 9.01047 17.3962 8.9467 17.4122C8.88293 17.4283 8.81552 17.4209 8.75669 17.3915L7.39626 16.7106L7.39621 16.7106C7.03375 16.5294 6.74419 16.2297 6.57564 15.8612C6.40709 15.4927 6.36969 15.0776 6.46966 14.6849L7.14691 12.0247ZM14.15 9.75V9.85H14.25H15.75H15.85V9.75V3.75V3.65H15.75H14.25H14.15V3.75V9.75Z" fill="black" stroke="white" stroke-width="0.2"/>
</svg>
